<svg xmlns="http://www.w3.org/2000/svg" width="171.5" height="117.3" viewBox="0 0 171.5 117.3"><defs><style>.cls-1{fill:#b4965c;}.cls-2{fill:#fff;}</style></defs><title>noche</title><g id="Capa_2" data-name="Capa 2"><g id="Capa_1-2" data-name="Capa 1"><path class="cls-1" d="M37.3,100.1l-2.2-1.9c-6-5-6-10.4.1-15.3s13.9-7.6,21.5-9.7c3.1-.9,5-1.3,3.6-5.4s3.8-11,8.2-11.6c11.7-1.8,23.3-3.1,34.7,1.6,2.4,1,5,2.1,4.4,5.2s1.5,4.1,4.1,4.6c5.9.9,11.8,1.6,17.4,3.9s11.5,5.2,14.9,10.9c1,1.8,2.3,1.6,3.8,1.3,3.9-.5,7.9-1,11.8-.1s6.7,2,5,6.6c-1.1,2.8,1.5,2.5,2.7,3.1,4.5,2.2,5.4,4.3,2.6,8.4a16.2,16.2,0,0,1-9,6.8c-19.6,6.5-39.3,6.1-59.3,2.9l-1.4-.4c-8.5-5.5-16.4-1.5-24.5,1.1-12.7,4.1-25.6,6.4-39,4.5a13.3,13.3,0,0,1-5.2-1.7c-4.6-2.7-4.8-7.6-.5-10.8C32.8,102.8,34.8,101.7,37.3,100.1Z"/><path class="cls-2" d="M133.9,77.1c-6.9-4.1-9.5-3.9-16,1.6-1.5,1.2-2.1.7-2.3-.7a13.4,13.4,0,0,1,.1-4c.3-1.5-.3-2.1-1.7-2.3s-1.1.9-1.5,2-2.9,3.7-5,1.3-4-1.3-6-1.1-1.6,1.5-2.5.3a2.7,2.7,0,0,1,0-3.3c1.4-2,4.7-4.7-1.4-4.1a1.3,1.3,0,0,1-1.4-1.2c-.3-5-3.6-3.6-6.5-3-5.4,1.2-10.8,0-16.2-.3-1.9-.1-3.7-2.6-5.1.8s-3.3,4.5-2.8,5.6c3.1,6,.4,6.9-4.8,6.2-.4-.1-.9.2-1.4.4-3.6,1.1-7.2,2.8-10.9,3.1S44,83.7,40,83.1c.4,2.2-5.6,3-1.2,6.5,1.3,1,5.4,4.3.7,7.2-.6.4.1.8.4,1s1.4.6,2-.3,1.7-3.4,2.5-2.6c2.7,3,5.4,1.4,8.2.7,1.2-.3,1.7.8,2.2,1.6s-.7,1.4-1,2.1-3.4.5-2.6,3.4-2,6.7-5.4,8.7-5.1.6-7.3,2.7a62.2,62.2,0,0,0,19.3-.2c11.5-1.7,22.9-4.3,32.9-11.1,1-.7,2.3-.8,1.5-2.3s-1.4-1.1-2.5.3-2.9.2-4.1-.9-2.2-2-1.5-3.4,2.8-1.3,4-.9,2.6,1.3,2.9-1.2,1.8-1.4,3-1.1,1.2,1.5.4,2.5-1.3,1.3-.6,2.1a3.4,3.4,0,0,0,2.8.8c1.5-.2,2-2.3,3.7-1.9,1.1,4.2,3.2,7.2,8.6,9.4-1.4-2.7-1-4.5-2.9-5.7a1,1,0,0,1,.6-1.9c2.2.8,4.7,1.5,6.1,3.7s1.8,2.7-.7,3.7c-1,.3-.2,2,.8,1.9s2,2.6,3.9,2.3c.4-2.5-2.2-7.5,3.3-5.5,3.2,1.2,7.8,1.5,9.4,7,.3-6.3.3-6.1,4.7-4.4.8.3,3.1,1.7,3.2-1.7a6.4,6.4,0,0,1,4.2-5c1.5-.4,2.7.8,3.5,2.7-4.9-.2-3.1,4.6-5.3,6.6,2,2,4.2,0,6.3.4a7.4,7.4,0,0,0,2.4-.5c1.4-.3,3.2-.1,3.4-2.2s-1.4-2.5-2.8-2.9-3.3-.3-1.9-2.7l3.7-7c1,3.7,1.7,6.5,2.6,9.7,1.5-1.8,3.1-2.1,4.9-2.5s6.2-1.4,6.4-3.7-2.8-4.3-6-4.2a3.2,3.2,0,0,1-3.4-2.4c-.4-1-.9-2.6-2.2-2.3-3.8,1.1-7.5-3.1-11.3,0-.6.4-7.3-4.4-7.3-5.2a2.2,2.2,0,0,1,.3-1.4c1.3-2,1.3-2-.8-2.5s-2.7.2-2.9-1.2S133,77.9,133.9,77.1Z"/><path class="cls-1" d="M35.6,107.9c2.8,1.1,4,4.2,7,2.5.8-.4,1.4-1,1.1-1.9s-.9-.8-.9-.7C40.7,109.7,38.6,107,35.6,107.9Z"/><path class="cls-1" d="M159.3,45.4c.9,10.2-2.8,17.6-9.5,23.7-1,.9-1.9,2.2-3.4,1.5s-1-2.3-.8-3.6a19.5,19.5,0,0,1,1-4.8c5.3-13.7-.6-24.4-10.4-32.6s-19.2-7-29.4-2.2l-.9.4c-1.7.6-3.6,2.3-5,.8s.3-3.4,1.3-4.8c7.7-12.2,25.3-15.9,39.1-7.5C152.3,23,161.1,31.6,159.3,45.4Z"/><path class="cls-2" d="M141.9,27.6c8.6,8.1,11.4,18.2,10.2,30.7,6.5-10.1,2.1-18.7-.8-27C150.5,28.9,145.6,28,141.9,27.6Z"/><path class="cls-1" d="M18.9,10.1c2.4.5,4.7,1.6,4.8,4.2s-1.3,4.6-3.7,4.4-3.5-3.3-4.1-5.5S17.1,10.3,18.9,10.1Z"/><path class="cls-1" d="M4.4,98.7c-2.1-.1-4.7-.1-4.4-3.2s2.4-3.9,4.9-4S8,93.6,8.2,95.7,6.7,98.9,4.4,98.7Z"/><path class="cls-1" d="M65.3,4.9c1.5,0,3.6.5,3.7,3a3.4,3.4,0,0,1-3.7,3.8,4.2,4.2,0,0,1-4.1-4.2C61.1,5.6,62.8,4.8,65.3,4.9Z"/><path class="cls-1" d="M52.3,51.3c1.9.3,2.6,1.7,2.3,3.5s-1.6,4-4.2,3.9-2.4-1.8-2.2-3.3S49.6,51.4,52.3,51.3Z"/><path class="cls-1" d="M124.9,49.5c-1.6-.8-4.7,0-4.6-3.1s2.2-3,4.4-2.8,4.4,1,4.1,3.8S126.9,49.8,124.9,49.5Z"/><path class="cls-1" d="M128.5,7.5c-2.1-.2-2.3-1.6-2.2-3.2S127.5.1,130.1,0a2.5,2.5,0,0,1,2.7,2.8A5.3,5.3,0,0,1,128.5,7.5Z"/><path class="cls-1" d="M166.8,74c-2.3-.2-4-1.3-4.2-3.4s1.8-3.5,3.9-3.6,2.8,1.3,2.9,3.1S169.2,73.8,166.8,74Z"/><path class="cls-1" d="M161.2,12.5c1.5,2,2.2,3.9,4.7,3.7s2.3,1.2,2.1,2.8a3.2,3.2,0,0,1-2.8,3,2.2,2.2,0,0,1-2.8-2.1C161.9,17.7,160.5,15.7,161.2,12.5Z"/><path class="cls-1" d="M20.6,65.9c-.7,1.2-1.4,2.9-3.1,2.7s-3.8-1.5-3.9-3.9a2.7,2.7,0,0,1,3-2.7C18,61.9,20.7,64.6,20.6,65.9Z"/><path class="cls-1" d="M57.8,26.4c.1,1.5-.7,2.4-2,2.3s-3.6-.2-3.7-2.4,1.3-2.2,2.7-2.4S57.4,25,57.8,26.4Z"/><path class="cls-1" d="M84.1,39.4c-1.3-.5-3.3-.3-3.2-2.4a2.9,2.9,0,0,1,5.7.2C86.8,39,85.6,39.3,84.1,39.4Z"/><path class="cls-1" d="M129.7,78.3c-.4,1.6-.7,3.4-2.6,2.8s-3.6-.9-3.5-2.8,2-2.4,3.6-2.6S129.7,76.9,129.7,78.3Z"/><path class="cls-1" d="M55.5,102.3c1.4-2.8,1.1-5.4,4.1-4.9a2.1,2.1,0,0,1,1.7,2.6C60.3,103,58,100.7,55.5,102.3Z"/><path class="cls-1" d="M85.5,93.4C83.7,93,83.6,91.3,83,90s.4-1.9,1.4-1.9,2.3,1.5,2.3,3S86.9,93.2,85.5,93.4Z"/><path class="cls-1" d="M91.6,81.9c-1,1.2-.3,3.4-2.5,3.6s-1.7-.3-1.4-1.4.8-3.2,2.8-3.4S91.4,81.3,91.6,81.9Z"/></g></g></svg>