<svg xmlns="http://www.w3.org/2000/svg" width="154.1" height="149.6" viewBox="0 0 154.1 149.6"><defs><style>.cls-1{fill:#ba9b5f;}.cls-2{fill:#fff;}</style></defs><title>desayuno</title><g id="Capa_2" data-name="Capa 2"><g id="Capa_1-2" data-name="Capa 1"><path class="cls-1" d="M69.3,102.5c-19.9,1.5-33.2-16-26.2-33.6a50.3,50.3,0,0,1,6-10.9c7-9.5,16-12.1,27.1-7.8,4.1,1.7,8.6,2.5,12.2,5.3,8,6,11.8,13.9,10.9,23.8S92.7,95.7,83.6,99.2C78.7,101,73.8,102.6,69.3,102.5Z"/><path class="cls-2" d="M86.6,74.5c-.9-2.1-1.9-3.8-4.3-4.3s-2.5-1.1-1.8-2.7.8-1.8,1.4-2,2,1.3,2.7,2.4,1.5,2.1,2.7.9-.5-1.5-.9-2.2-.8-5-4.5-4.5c-.5,0-.7-1.2-.1-1.6,2.9-2.2.1-3-1.1-3.9-4.1-3-8.9-3-13.8-2.3C52.1,56.7,43.7,69.6,48,83.5c.9,3,2,5.7,6.3,4,1.4-.5,3.7-2,5.5.1s.7,2.3,2,1.7.3-2,0-2.9-.6-2.7.2-3.9,2.4-2.4,4.2-1.7.8,2.1.5,3.3-1.1,3.4.3,5.3c1.3-1.9,1.6-4.3,3.7-5.2,3.9-1.7-.6-3.9.4-5.8a2.6,2.6,0,0,1,1-.9c2.8,1.6,6.8-4.1,8.6,1.9,2.1-2.7-1.7-5.3.1-6.9S83.7,75.8,86.6,74.5Z"/><path class="cls-1" d="M154.1,112.5c-3.5,1.1-6.6-.3-9.7-1.4a282.7,282.7,0,0,0-38.5-10l-1.9-.5c-1.4-.4-2.6-1.2-2.2-2.8s1.8-1.4,3.2-1.1A214.2,214.2,0,0,1,142.6,108C146.4,109.4,150.1,111.1,154.1,112.5Z"/><path class="cls-1" d="M103.5,148.7c-4.1-4-6.4-8.8-8.7-13.7s-5.1-11.1-7.6-16.7c-.8-1.6-1.9-3.9.2-4.8s2.5,1.8,3.2,3.2c4.4,10,7.5,20.5,12.6,30.2A9.7,9.7,0,0,1,103.5,148.7Z"/><path class="cls-1" d="M31.6,14.9c4,1.5,5.2,5.4,7.7,8.2,4.5,5,8.1,10.9,13.8,14.7,1.3.9,2,2,1.1,3.4a1.9,1.9,0,0,1-3,.3C42.7,34,36.5,24.9,31.6,14.9Z"/><path class="cls-1" d="M148.9,73.6A137,137,0,0,1,120.4,77c-1.3,0-3.4,0-3.4-2s1.9-2.3,3.8-2c8.6,1.2,17.2-1,25.8.2Z"/><path class="cls-1" d="M133.4,42.3c-7.3,5-14.5,10.1-22.3,14.6-1.1.6-2.2.9-3.1-.1a2.7,2.7,0,0,1,.8-2.1l23.7-13.9Z"/><path class="cls-1" d="M69.1,149.6c-1.8-7.7-.9-15.5-1.5-23.2-.1-1.4.1-3.1,1.6-3.2s1.5,1.8,1.5,2.9C70.4,134,70.8,141.9,69.1,149.6Z"/><path class="cls-1" d="M70.1,0c1.4,10.8-.5,21.5-.9,32.2-.1,1.1-.1,3.1-1.9,2.9s-1.5-2-1.3-3.2C67.8,21.3,68.9,10.7,70.1,0Z"/><path class="cls-1" d="M.1,77.3H25.7c1.1,0,2.2.5,2.3,1.5s-1,1.6-2,1.6c-8.7.1-17.4.3-26-1.5Z"/><path class="cls-1" d="M105.2,23.3a140.6,140.6,0,0,1-11.3,20c-.8,1-1.8,1.8-2.9.9s-.7-2.1,0-3.1l13.2-18.4Z"/><path class="cls-1" d="M21.4,47.7l16.1,9.8c.7.5,1.2,1.3.7,2.1a1.6,1.6,0,0,1-2.2.5c-5.4-3.3-11.2-6-15.7-10.5Z"/><path class="cls-1" d="M37.6,94.8c-2.9,4.2-15.9,10.5-21,10.4C22.9,101.3,29.1,97.3,37.6,94.8Z"/><path class="cls-1" d="M42.9,127.8c1.7-6.4,5.6-11.3,9.3-16.4.7-1,1.9-1.7,2.9-.8s.2,2.2-.6,3.1Z"/></g></g></svg>