<svg width="36" height="36" viewBox="0 0 36 36" fill="none" xmlns="http://www.w3.org/2000/svg">
<path d="M17.1 5.4001C17.3106 5.40003 17.5146 5.47384 17.6765 5.6087C17.8383 5.74355 17.9477 5.93089 17.9856 6.1381L18 6.3001V11.7001C18.0002 12.7375 17.642 13.7431 16.986 14.5467C16.33 15.3503 15.4164 15.9026 14.4 16.1101V29.7001C14.4004 29.925 14.3166 30.1419 14.1651 30.3081C14.0136 30.4743 13.8053 30.5778 13.5813 30.5981C13.3573 30.6184 13.1339 30.5541 12.9549 30.4179C12.7759 30.2817 12.6545 30.0834 12.6144 29.8621L12.6 29.7001V16.1101C11.6355 15.9128 10.7622 15.4049 10.114 14.6639C9.46574 13.923 9.07822 12.9901 9.0108 12.0079L9 11.7001V6.3001C8.99959 6.07519 9.08339 5.85829 9.23492 5.69209C9.38644 5.52589 9.5947 5.42244 9.81868 5.40212C10.0427 5.3818 10.2661 5.44608 10.4451 5.58229C10.6241 5.71851 10.7455 5.91679 10.7856 6.1381L10.8 6.3001V11.7001C10.7997 12.2587 10.9727 12.8036 11.2951 13.2598C11.6174 13.7159 12.0734 14.0609 12.6 14.2471V6.3001C12.5996 6.07519 12.6834 5.85829 12.8349 5.69209C12.9864 5.52589 13.1947 5.42244 13.4187 5.40212C13.6427 5.3818 13.8661 5.44608 14.0451 5.58229C14.2241 5.71851 14.3455 5.91679 14.3856 6.1381L14.4 6.3001V14.2453C15.3684 13.9033 16.083 13.0249 16.1874 11.9683L16.2 11.7001V6.3001C16.2 6.0614 16.2948 5.83248 16.4636 5.6637C16.6324 5.49492 16.8613 5.4001 17.1 5.4001V5.4001ZM26.1 5.4001C26.3106 5.40003 26.5146 5.47384 26.6765 5.6087C26.8383 5.74355 26.9477 5.93089 26.9856 6.1381L27 6.3001V29.7001C27.0004 29.925 26.9166 30.1419 26.7651 30.3081C26.6136 30.4743 26.4053 30.5778 26.1813 30.5981C25.9573 30.6184 25.7339 30.5541 25.5549 30.4179C25.3759 30.2817 25.2545 30.0834 25.2144 29.8621L25.2 29.7001V19.8001H22.5C22.2894 19.8002 22.0854 19.7263 21.9235 19.5915C21.7617 19.4566 21.6523 19.2693 21.6144 19.0621L21.6 18.9001V9.9001C21.6 8.70662 22.0741 7.56203 22.918 6.71812C23.7619 5.8742 24.9065 5.4001 26.1 5.4001V5.4001ZM25.2 18.0001V7.3531C24.2316 7.6951 23.517 8.5735 23.4126 9.6319L23.4 9.9001V18.0001H25.2V7.3531V18.0001Z" fill="white"/>
</svg>
