<svg xmlns="http://www.w3.org/2000/svg" width="171.9" height="111.8" viewBox="0 0 171.9 111.8"><defs><style>.cls-1{fill:#b5975d;}.cls-2{fill:#fff;}</style></defs><title>tarde</title><g id="Capa_2" data-name="Capa 2"><g id="Capa_1-2" data-name="Capa 1"><path class="cls-1" d="M50.9,41.3c-5.4-3.2-10.9-4.5-15.7-8.4,5.3-.1,9.5,1.8,13.7,3.1,1.5.5,2.9,1.4,4-.2s.1-3.2-1-4.4c-4.6-5-9.2-9.9-13.5-15.3,2.5.1,4.1,1.7,5.7,3.1s5.5,5.3,8.5,7.7c1.2,1.1,2.1,3.6,4.3,2.6s2.8-3.2,3.2-5.4-.3-4.6-1.4-6.7S55.2,10,55.3,5.6c3.4,3.1,4.8,7.4,7,11.2,1,1.7,1.3,4.3,3.8,4.2s5.5-.3,6.3-4.2A124.5,124.5,0,0,1,77.4,0c1,4.8-.1,9.4-.9,14s-.3,4.5,3.7,5.3c5.6,1,8.5-.6,11.2-5.1,1.8-2.8,4.6-5,7.3-7.2a33.6,33.6,0,0,1-6.3,11.6c-3.1,4,.7,5.1,2.5,7.1s3.8,1.1,5.7-.8c5.1-5,10.3-9.9,15.5-14.8.6-.6,1.2-1.7,2.8-.7L103,27.6c-2.2,2.6-2.8,9.5-1,12.3s2,.3,2.9,0c5.7-2.2,11.4-4.6,17.1-6.7,1.4-.6,2.8-1.9,5.3-.8l-10.2,4.9-9.9,5c1.5,2,3.4,1.4,5,1.6,9.8,1.4,19.9,1.6,28,8.5,2.1,1.7,3.9,3.3,4,5.9s1.2,3.6,3.9,3.6c5.5-.1,10.8,1.4,16,3.1,6.7,2.1,9.1,6.7,7.2,13.6-1.4,5.1-4.7,8.7-9.1,11.4-12.5,7.4-25.6,11.6-40.3,9.8-3.8-.5-6.9.2-9.4,3.7s-5.5,4.8-9.1,5.7c-16.6,4-32.9,3.5-48.8-2.6-4.5-1.7-8.5-4-9-9.6-.2-2.5-2-2.2-3.6-2.2-4.7,0-9.4-.5-13.9.1-6.2.8-11.8-.9-17.5-2.3S1.2,88.9.1,83.2s2.5-9.7,7.6-12.4c8.1-4.2,16.1-8.7,25.6-8.9,2.1-.1,3.3-.6,2.4-3.4-2.5-7.5-1.8-8.9,4.7-13.1C43.4,43.5,46.8,42.7,50.9,41.3Z"/><path class="cls-2" d="M116.5,94.3c1.7.8,3.2,1.9,4.9,2.2,14.6,2.6,27.5-1.8,39.5-9.5,1.3-.8,3.6-1.7,1.3-4.1s.3-2,1.2-2.7,3.2-.9,4-3c-2.9-.2-7-1.2-6.3-3.8,1.5-5.1-1.9-5.2-4.6-6.6-8.2-4.6-16.2-.4-25-.2,1.5,2,4.7.5,3.9,3.2s-2.3,1.3-3.7.4a1.9,1.9,0,0,0-1.8.3c-4.5,3.5-8.1-2.8-12.4-1.1-.1-.6-.6-1.5-.4-1.7,2.1-1.6,1.5-4.8,3.8-7.1.9,4.9,3.5,6.7,7.8,5.7a2.1,2.1,0,0,0,2-2.4c-.1-1.2-.9-1.1-1.7-1.2-4.3-.5-7.7-2-8.1-7-.1-1.6-1.9-1-2.8-1.6l-1.2-.9,3.2-2.9c-3.7-.6-5-4.7-9.1-4.5-6.1.3-12.2-.4-18.4-.3-4.6.1-9.5.2-13.4,2.6s-5.1,1.6-7.8-.6-7.8-4.6-12.9-3.1c1,2.1,4.3.9,3.7,3.7-.2,1-8.6,5.3-9.1,4.6-2.6-3.3-3.7-.2-5.5.5,1.2,2.4,3.7.9,5.3,2.7-1.7,1.3-4.4.7-4.5,3.5-.2,4.4-3.3,5.7-7.1,5.4A48.9,48.9,0,0,0,26.5,66c-6.9,1.7-13.6,4-18.9,9.2,3.3,2.6,5.5,6,9.5,7a2.7,2.7,0,0,1,1.8,1.5c1.2,2.3,2.9,2.4,5.3,2.4s6-1.5,7.7.9,1.5,1.5,2.6.5,5-.5,3.2-4.1l.9-.8c5.6,10.8,12.8,2.8,19.5,1.7-.8-1.6-4,0-3.6-2.4s2.7-1.1,4.2-1.3,3.8.6,3.4-2.5c-.1-.6.2-1.4,1.1-1.2s1.1,1,1.2,1.9-1.9,3.7,0,5.5,2.5,3.7-1,4.9c-1.4.5-2.5,1.9-4.1,3.1,2.2.7,3.7,1.5,3.2,3.8s-1.4,2.6-3.5,2.6-4.4,1.1-2.7,3.2a7.9,7.9,0,0,0,8.4,2.5c2.1-.8,2.2-.6,3.5,1.1,2.6,3.3,6.9,2.3,10.5,2.3s-1.4-3.3,1.5-4a11.5,11.5,0,0,1,1.4.8c4.7,3.6,9.4,6.7,14.5.4.4-.6,2.6-.6,3.2,0,3.4,3.4,5,1.6,6.2-1.9a1.8,1.8,0,0,1,1.8-1.3c3.6-.3,4.3-2.5,4-5.6s.7-3.9,3.4-3.2Z"/><path class="cls-2" d="M76.2,40.6c1.6-1.1,1.8-5.6,4.3-2.8s3.3,2.1,5.7,1.3,3.9-.4,4.9,2c1.7,3.9,3.5,1.7,4.8-.2s.4-3.9-.3-5.8c-1.9-4.9-5.8-7.5-10.4-10-7.4-3.9-12.7-2.7-17.2,4.8,2.5.2,5-1.3,7.3.1s3.3,2.1,2.7,4.2-2.8-.2-4.6,1C76.3,36,74.8,38.6,76.2,40.6Z"/><path class="cls-1" d="M114.9,72.7c-2,.8-2.9,3.9-5.3,2.7s-1-2.8-.3-3.7C111.2,69.2,113,71.7,114.9,72.7Z"/><path class="cls-1" d="M68.6,80.9c-.9.1-1.5-.4-1.3-1.1a7.4,7.4,0,0,1,4.1-5,1.3,1.3,0,0,1,1.8,1.5C72.5,78.6,70.1,79.5,68.6,80.9Z"/><path class="cls-1" d="M14.8,78.4c-.7-.3-1.9-.6-1.4-1.6s.8-3.7,2.9-4.3,1.5.7,1.4,1.6A5.5,5.5,0,0,1,14.8,78.4Z"/><path class="cls-1" d="M117.3,93.3,115.7,92c-.5-1.3-1.7-2.7,0-3.8s1.9.5,2.3,1.3S120.6,92.6,117.3,93.3Z"/><path class="cls-1" d="M122.9,94.8c.9-2.5,1.1-4.3,3.4-3.5.7.2,1.9.5,1.4,1.5S125,94.1,122.9,94.8Z"/><path class="cls-1" d="M76,72.5c1-2.6,2.5-2.9,4.4-2,.3.1.8.9.7,1.1C79.9,73.5,78,72.7,76,72.5Z"/><path class="cls-1" d="M37.7,83.4c-.6-.6-1.8-1.3-.6-2.1s1.3.5,1.5,1.3Z"/></g></g></svg>