<svg width="36" height="36" viewBox="0 0 36 36" fill="none" xmlns="http://www.w3.org/2000/svg">
<path d="M32.3299 5.99994C32.1936 5.98589 32.0562 5.98589 31.9199 5.99994H3.91989C3.74044 6.0027 3.56217 6.02961 3.38989 6.07994L17.8399 20.4699L32.3299 5.99994Z" fill="#363636"/>
<path d="M33.8102 7.38986L19.2502 21.8899C18.8755 22.2624 18.3685 22.4715 17.8402 22.4715C17.3118 22.4715 16.8049 22.2624 16.4302 21.8899L2.00018 7.49986C1.95582 7.6629 1.93229 7.83091 1.93018 7.99986V27.9999C1.93018 28.5303 2.14089 29.039 2.51596 29.4141C2.89103 29.7892 3.39974 29.9999 3.93018 29.9999H31.9302C32.4606 29.9999 32.9693 29.7892 33.3444 29.4141C33.7195 29.039 33.9302 28.5303 33.9302 27.9999V7.99986C33.9222 7.79152 33.8817 7.5857 33.8102 7.38986V7.38986ZM5.30018 27.9999H3.91018V26.5699L11.1802 19.3599L12.5902 20.7699L5.30018 27.9999ZM31.9102 27.9999H30.5102L23.2202 20.7699L24.6302 19.3599L31.9002 26.5699L31.9102 27.9999Z" fill="#363636"/>
</svg>
