<svg width="28" height="28" viewBox="0 0 28 28" fill="none" xmlns="http://www.w3.org/2000/svg">
<path d="M27.5835 5.75982C26.6093 6.19149 25.5628 6.48315 24.4626 6.61499C25.5978 5.93575 26.4471 4.8667 26.852 3.60732C25.7855 4.24081 24.6182 4.68672 23.401 4.92565C22.5824 4.05166 21.4982 3.47237 20.3167 3.27771C19.1352 3.08305 17.9224 3.28391 16.8668 3.84912C15.8111 4.41432 14.9715 5.31224 14.4785 6.40348C13.9854 7.49471 13.8664 8.7182 14.14 9.88399C11.9789 9.77548 9.86487 9.2138 7.93497 8.23538C6.00506 7.25696 4.30245 5.88368 2.93764 4.20465C2.47097 5.00965 2.20264 5.94299 2.20264 6.93699C2.20212 7.83182 2.42248 8.71294 2.84416 9.50218C3.26585 10.2914 3.87583 10.9644 4.61997 11.4613C3.75696 11.4339 2.91299 11.2007 2.15831 10.7812V10.8512C2.15822 12.1062 2.59234 13.3226 3.38702 14.294C4.1817 15.2654 5.28797 15.9319 6.51814 16.1805C5.71755 16.3972 4.8782 16.4291 4.06347 16.2738C4.41055 17.3537 5.08663 18.298 5.99707 18.9746C6.9075 19.6511 8.00671 20.026 9.14081 20.0468C7.21561 21.5581 4.83801 22.3779 2.39047 22.3743C1.95692 22.3744 1.52373 22.3491 1.09314 22.2985C3.57753 23.8959 6.46954 24.7436 9.42314 24.7403C19.4215 24.7403 24.8873 16.4593 24.8873 9.27732C24.8873 9.04399 24.8815 8.80832 24.871 8.57499C25.9341 7.80612 26.8519 6.85403 27.5811 5.76332L27.5835 5.75982V5.75982Z" fill="white"/>
</svg>
