<svg width="36" height="36" viewBox="0 0 36 36" fill="none" xmlns="http://www.w3.org/2000/svg">
<path d="M17.25 18.375C17.25 18.0766 17.3685 17.7905 17.5795 17.5795C17.7905 17.3685 18.0766 17.25 18.375 17.25C18.6734 17.25 18.9595 17.1315 19.1705 16.9205C19.3815 16.7095 19.5 16.4234 19.5 16.125C19.5 15.8266 19.3815 15.5405 19.1705 15.3295C18.9595 15.1185 18.6734 15 18.375 15C17.4799 15 16.6215 15.3556 15.9885 15.9885C15.3556 16.6215 15 17.4799 15 18.375C15 18.6734 15.1185 18.9595 15.3295 19.1705C15.5405 19.3815 15.8266 19.5 16.125 19.5C16.4234 19.5 16.7095 19.3815 16.9205 19.1705C17.1315 18.9595 17.25 18.6734 17.25 18.375Z" fill="white"/>
<path d="M10.5 18.75C10.5 16.562 11.3692 14.4635 12.9164 12.9164C14.4635 11.3692 16.562 10.5 18.75 10.5C20.938 10.5 23.0365 11.3692 24.5836 12.9164C26.1308 14.4635 27 16.562 27 18.75C27 20.938 26.1308 23.0365 24.5836 24.5836C23.0365 26.1308 20.938 27 18.75 27C16.562 27 14.4635 26.1308 12.9164 24.5836C11.3692 23.0365 10.5 20.938 10.5 18.75V18.75ZM18.75 12.75C17.1587 12.75 15.6326 13.3821 14.5074 14.5074C13.3821 15.6326 12.75 17.1587 12.75 18.75C12.75 20.3413 13.3821 21.8674 14.5074 22.9926C15.6326 24.1179 17.1587 24.75 18.75 24.75C20.3413 24.75 21.8674 24.1179 22.9926 22.9926C24.1179 21.8674 24.75 20.3413 24.75 18.75C24.75 17.1587 24.1179 15.6326 22.9926 14.5074C21.8674 13.3821 20.3413 12.75 18.75 12.75V12.75Z" fill="white"/>
<path d="M9.3225 9.741C11.532 5.7375 15.5745 3 20.25 3C27.39 3 33 9.3315 33 16.9125C33 17.7615 32.9295 18.594 32.796 19.4025C32.7105 19.9185 32.7285 20.4675 32.832 21.027C33.1755 22.8736 32.9985 24.7794 32.3209 26.5312C31.6433 28.283 30.4918 29.8117 28.9951 30.9466C27.4984 32.0814 25.7155 32.7775 23.8458 32.9571C21.9761 33.1367 20.0934 32.7927 18.408 31.9635C17.2112 31.3899 15.8693 31.1908 14.5575 31.392C14.0834 31.4641 13.6045 31.5002 13.125 31.5C7.4505 31.5 3 26.544 3 20.625C3 16.7685 4.872 13.35 7.74 11.415C8.409 10.9605 8.961 10.3935 9.3225 9.741ZM20.25 5.25C16.4985 5.25 13.1595 7.446 11.292 10.8285C10.7295 11.8455 9.909 12.663 8.997 13.278C6.7695 14.7855 5.25 17.496 5.25 20.625C5.25 25.4745 8.859 29.25 13.125 29.25C13.497 29.25 13.8615 29.2215 14.22 29.1675C15.9858 28.8973 17.7921 29.1682 19.401 29.9445C20.7121 30.5893 22.1766 30.8566 23.6309 30.7166C25.0852 30.5766 26.4719 30.0348 27.6359 29.1518C28.7998 28.2687 29.6952 27.0793 30.2219 25.7165C30.7485 24.3537 30.8857 22.8713 30.618 21.435C30.465 20.6435 30.4508 19.8314 30.576 19.035C30.69 18.348 30.75 17.6385 30.75 16.9125C30.75 10.368 25.95 5.25 20.25 5.25V5.25Z" fill="white"/>
</svg>
