<svg width="28" height="28" viewBox="0 0 28 28" fill="none" xmlns="http://www.w3.org/2000/svg">
<path d="M25.1455 4.66664C25.0395 4.65572 24.9327 4.65572 24.8267 4.66664H3.04888C2.9093 4.66879 2.77065 4.68972 2.63666 4.72886L13.8755 15.9211L25.1455 4.66664Z" fill="white"/>
<path d="M26.2967 5.7478L14.9722 17.0256C14.6808 17.3153 14.2865 17.4779 13.8755 17.4779C13.4646 17.4779 13.0703 17.3153 12.7789 17.0256L1.55554 5.83336C1.52104 5.96017 1.50275 6.09084 1.5011 6.22225V21.7778C1.5011 22.1904 1.66499 22.586 1.95671 22.8777C2.24843 23.1695 2.6441 23.3334 3.05665 23.3334H24.8344C25.247 23.3334 25.6427 23.1695 25.9344 22.8777C26.2261 22.586 26.39 22.1904 26.39 21.7778V6.22225C26.3838 6.0602 26.3523 5.90012 26.2967 5.7478V5.7478ZM4.12221 21.7778H3.0411V20.6656L8.69554 15.0578L9.79221 16.1545L4.12221 21.7778ZM24.8189 21.7778H23.73L18.06 16.1545L19.1567 15.0578L24.8111 20.6656L24.8189 21.7778Z" fill="white"/>
</svg>
