<svg width="36" height="36" viewBox="0 0 36 36" fill="none" xmlns="http://www.w3.org/2000/svg">
<path d="M22.8713 24.165L25.3913 21.645C25.7308 21.3098 26.1602 21.0804 26.6275 20.9845C27.0948 20.8886 27.5799 20.9305 28.0238 21.105L31.0951 22.3313C31.5437 22.5134 31.9285 22.8242 32.2007 23.2246C32.473 23.625 32.6207 24.0971 32.6251 24.5813V30.2063C32.6225 30.5356 32.5532 30.8611 32.4215 31.163C32.2898 31.4649 32.0984 31.737 31.8588 31.963C31.6191 32.189 31.3362 32.3641 31.0271 32.4779C30.718 32.5917 30.3891 32.6417 30.0601 32.625C8.53884 31.2863 4.19634 13.0613 3.37509 6.08627C3.33697 5.74374 3.3718 5.39703 3.47729 5.06894C3.58279 4.74085 3.75656 4.43881 3.98717 4.18269C4.21777 3.92658 4.5 3.7222 4.81527 3.58299C5.13054 3.44378 5.47171 3.3729 5.81634 3.37502H11.2501C11.735 3.37645 12.2083 3.52292 12.6093 3.79557C13.0103 4.06823 13.3205 4.45461 13.5001 4.90502L14.7263 7.97627C14.9066 8.41847 14.9526 8.90399 14.8586 9.37218C14.7645 9.84037 14.5346 10.2705 14.1976 10.6088L11.6776 13.1288C11.6776 13.1288 13.1288 22.95 22.8713 24.165Z" fill="#363636"/>
</svg>
